# xmcd
# 
# Track frame offsets:
#     150
#     12409
#     26098
#     39899
#     49942
#     62792
#     79621
#     92524
#     103614
#     118962
#     135159
# 
# Disc length: 2169
# 
# Revision: 1
# Processed by: cddbd v1.5.2PL0 Copyright (c) Steve Scherf et al.
# Submitted via: fre:ac v1.0.27
# 
DISCID=8508770b
DTITLE=Toro Y Moi - Causers Of This
DYEAR=2010
DGENRE=Electronic
TTITLE0=Blessa
TTITLE1=Minors
TTITLE2=Imprint After
TTITLE3=Lissons
TTITLE4=Fax Shadow
TTITLE5=Thanks Vision
TTITLE6=Freak Love
TTITLE7=Talamak
TTITLE8=You Hid
TTITLE9=Low Shoulder
TTITLE10=Causers Of This
EXTD=
EXTT0=
EXTT1=
EXTT2=
EXTT3=
EXTT4=
EXTT5=
EXTT6=
EXTT7=
EXTT8=
EXTT9=
EXTT10=
PLAYORDER=
